# This file uses centimeters as units for non-parametric coordinates.

mtllib Duoduod_RiverWeed.mtl
g default
v 4.770386 1.859126 -3.159958
v 3.442017 1.706227 -4.483627
v 7.866821 3.222034 -3.770401
v 4.028564 3.594995 -8.444153
v 12.521973 2.887365 -8.384338
v 8.561035 3.290892 -12.808762
v 13.341919 0.758877 -13.161255
v 9.975708 3.944128 -5.037537
v 5.640625 4.038239 -10.361572
v 11.836182 1.240478 -14.148941
v 1.679932 0.845499 -2.033981
v 2.306641 0.962428 -1.360626
v 0.015381 -0.163632 0.297028
v 10.463257 1.743200 -10.989670
v 6.958618 2.133293 -6.864380
v -4.651123 4.176275 -1.384811
v -3.518433 4.303196 -3.040009
v -8.242188 5.076364 -1.166718
v -4.481445 5.684940 -7.293503
v -13.756714 4.651836 -6.404266
v -9.257935 5.204714 -11.131073
v -14.096802 3.058190 -10.968445
v -10.859863 5.372262 -1.964859
v -6.028931 5.955225 -9.059204
v -2.090332 3.009929 -1.711594
v -2.668701 2.937137 -0.798996
v -0.341675 1.001785 -0.752090
v 0.080078 -0.251220 0.224472
v -0.722168 0.904301 -0.032883
v -12.660400 3.517767 -11.827301
v 0.427124 -0.156146 -0.454147
v -1.298340 2.183166 -1.223892
v -1.766479 2.089364 -0.399796
v 4.590454 17.967278 1.120422
v 4.063599 10.614336 1.312759
v 1.812744 4.759090 0.574219
v 2.804810 4.526379 0.724319
v 5.448608 11.315870 1.510162
v 6.253906 16.865986 1.406982
v 4.040405 23.601387 0.527679
v 5.851318 23.524250 0.722397
v 4.773560 24.550350 0.617432
v 4.453613 14.522364 1.323517
v -0.404297 0.712424 -0.242188
v 0.520508 0.181965 -0.110489
v 3.327026 8.322237 1.084854
v 4.582886 8.629330 1.277252
v 5.999268 14.439386 1.490845
v 6.283936 18.902576 1.260208
v 4.364746 21.344398 0.805115
v 6.122070 21.261200 1.009491
v 5.106201 22.448471 1.255173
v 5.473877 17.956741 1.860321
v 5.066040 13.608418 2.039169
v 4.019653 9.602566 1.876266
v 2.118408 4.606854 1.248886
v -0.053711 0.378663 0.433655
v 6.011230 7.544935 -11.560410
v 3.431396 2.611577 -6.542938
v 0.458130 -0.086581 -0.060623
v -0.423706 0.080086 0.056076
v 2.523560 2.833061 -6.864655
v 4.057617 5.617743 -10.399017
v 7.743286 11.772049 -14.481400
v 6.487183 11.453789 -15.073013
v 7.139404 12.845770 -14.928604
v 4.868042 4.955813 -9.128281
v 2.102051 1.221381 -3.720261
v 1.454468 1.494342 -3.991394
v 5.292480 8.348547 -12.932739
v 6.293701 10.258430 -13.370316
v 4.877563 6.788416 -10.700745
v 3.873291 4.796579 -8.482819
v 3.210205 3.176100 -6.553284
v 1.848145 1.654155 -3.682449
v -3.027588 21.848557 -2.662048
v -3.526123 13.347527 -2.824539
v -1.640015 5.386002 -1.388779
v 0.093262 1.132406 -0.142319
v -0.644897 0.768728 -0.345062
v -2.882935 6.572598 -1.968491
v -4.842041 15.412086 -3.320648
v -4.590942 22.053726 -3.096420
v -1.694580 27.322849 -1.867905
v -3.394897 27.734268 -2.286285
v -2.250366 28.375374 -2.039810
v -3.384521 18.420639 -2.917633
v -1.948608 3.659328 -1.253723
v -2.954590 9.914429 -2.357010
v -3.722046 10.008289 -2.594498
v -3.526123 13.347527 -2.824554
v -4.448120 12.622774 -3.027725
v -4.896484 18.583347 -3.309082
v -2.323120 25.145065 -2.240112
v -4.023682 25.339478 -2.695099
v -3.024902 26.287788 -1.748474
v -4.163086 19.747364 -2.475235
v -4.017822 13.587872 -2.397278
v -3.500610 10.015169 -1.946732
v -2.183838 5.326046 -0.971237
v -0.209717 0.983101 -0.225555
v -15.558228 8.701492 -1.554245
v -12.401611 5.604197 -1.270264
v -5.694336 1.397732 -1.163559
v -0.045044 -0.305476 -0.912460
v 0.536987 -0.537885 0.133881
v -5.214111 1.374075 -0.152878
v -12.686523 5.577074 -0.181976
v -15.747681 8.426779 -0.236282
v -19.784668 15.303974 -1.460495
v -20.064453 14.851072 -0.128113
v -19.999878 16.438698 -0.551498
v -2.968506 0.433750 -1.041107
v -2.445801 0.307130 -0.013031
v -8.465576 2.707372 -1.270523
v -8.354980 2.849067 -0.244476
v -10.351929 3.786964 -1.337006
v -10.567383 4.098722 -0.292145
v -17.932495 11.944822 -1.467789
v -18.152100 11.532518 -0.183624
v -18.559692 13.709021 -0.795471
v -15.297241 8.885298 -0.751038
v -12.413574 5.759148 -0.800674
v -10.320923 4.074396 -0.945465
v -8.302002 2.937546 -0.824997
v 4.800293 1.999120 0.415833
v 4.042725 1.796424 2.673523
v 9.557617 3.567270 -2.427963
v 6.505127 3.033202 6.909775
v 13.415039 3.238476 -0.227173
v 11.640991 3.507947 8.179428
v 16.962769 2.761143 4.459106
v 8.800049 3.348964 8.306580
v 2.145142 1.490839 1.314346
v 2.457275 1.634531 0.336761
v 15.873657 2.955725 7.137741
v 0.770630 0.726780 0.634781
v 0.127075 0.124509 -0.256195
v 0.940796 0.946503 -0.032379
v 11.127563 1.739472 4.202133
v -3.622437 2.385869 5.054779
v -1.247803 2.329867 5.872406
v -7.513916 3.540376 6.960922
v 0.640137 4.400589 10.617935
v -10.222778 4.059178 14.106155
v -2.276209 4.881250 17.006615
v -7.707886 3.568284 19.615952
v -9.726562 4.481918 8.877960
v 0.187256 5.159346 13.305313
v -0.735596 1.345251 2.657272
v -1.655396 1.461378 2.230118
v -5.495361 3.955411 19.751373
v -0.090088 -0.256283 0.071686
v -0.762817 -0.092374 -0.314056
v -4.954712 2.876262 13.097000
v -1.270630 8.452967 -8.546417
v -0.725220 5.073164 -6.060379
v -0.383789 0.031998 -0.437408
v 0.544312 0.064648 0.091400
v 0.319580 5.243761 -6.243332
v 0.021484 8.408167 -8.660919
v -1.916626 15.324833 -11.442520
v -0.579468 15.131794 -11.669174
v -1.215698 16.539326 -11.388382
v -0.520996 1.708179 -2.834518
v 0.418091 1.959745 -2.624542
v -0.636108 3.024867 -4.435410
v 0.313965 3.492756 -4.502457
v -1.533081 11.885004 -10.245300
v -0.250732 11.712893 -10.412964
v -1.124512 13.722973 -10.495743
v -0.556274 8.687870 -8.206879
v -0.305176 5.282730 -6.008484
v -0.311523 3.339706 -4.328415
v -0.144531 1.954454 -2.607925
v 0.932739 9.656457 -0.973877
v -0.523804 -0.208226 -0.405258
v 0.211670 -0.287768 -0.067429
v 2.049866 9.091678 -0.428894
v 1.401001 17.118614 -1.487701
v 2.756836 16.738312 -0.911880
v 2.109131 17.794163 -1.160614
v 1.881470 16.260094 -0.729782
v 1.251709 9.381308 -0.238358
v -0.378296 -0.176848 0.228195
v 2.377563 5.146634 3.057755
v 0.170776 4.965163 3.829987
v 5.398438 7.837944 4.113983
v -2.162231 8.564594 6.944260
v 7.200195 11.882456 9.182632
v -0.752441 12.377789 11.574615
v 5.016846 12.268641 15.562225
v 6.976318 10.021069 5.326889
v -2.036377 10.643639 8.954041
v 6.478638 12.424028 11.846680
v 0.671143 12.581610 13.320053
v 0.128784 2.487358 1.506973
v 1.004517 2.592149 1.060745
v 2.999390 12.455198 15.614136
v 0.078979 -0.244491 0.023224
v 0.734131 -0.129209 -0.408234
v 2.962524 9.705204 9.837997
v -2.678467 2.671564 3.591766
v -4.053955 2.756298 1.639084
v -2.868530 4.360714 9.095261
v -8.538208 5.019093 1.081711
v -6.906494 4.937073 10.882492
v -12.413086 6.393880 4.444748
v -12.746826 5.750468 10.940414
v -10.897827 5.876014 2.089233
v -1.952393 1.969490 0.928055
v -1.335327 1.985234 1.760422
v -14.173706 6.249894 8.467804
v -0.787354 0.921875 0.235062
v 0.154297 0.095023 0.253906
v -0.314941 1.045564 0.767807
v -9.379395 3.919990 6.416183
v -0.226074 3.500931 -1.128815
v 0.878052 3.494208 -0.639984
v -1.201294 4.900329 -2.012070
v 2.615356 5.882954 -0.233627
v -0.312256 7.169340 -4.864105
v 3.472290 7.676785 -2.542953
v 2.018921 8.372190 -6.141098
v -1.385864 5.972397 -2.966110
v 0.280884 1.481951 -0.145294
v -0.157837 1.794618 -0.357300
v 2.896729 8.465364 -5.390320
v 0.145508 -0.204912 -0.038162
v -0.245728 -0.181866 -0.133240
v 1.432495 5.985591 -3.176620
v -2.010864 2.998231 0.740891
v -2.028442 3.009642 -0.466431
v -2.833374 4.170238 2.021271
v -2.990479 4.889952 -1.936508
v -6.369385 5.351899 2.438095
v -6.363892 6.081984 -1.736893
v -8.782349 5.830724 0.869598
v -3.925659 4.918340 2.605209
v -4.207397 5.592390 -2.045364
v -0.715576 1.325252 -0.166916
v -0.824097 1.608646 0.326157
v -8.517212 6.042305 -0.238480
v -0.024414 -0.222459 -0.120483
v 0.042114 -0.183402 0.275238
v -5.232300 4.536182 0.128418
v 6.184692 4.182381 -1.952728
v 6.242676 4.378498 0.412857
v 9.334839 7.392628 3.050903
v 15.925659 5.209037 -5.447144
v 16.007812 7.274013 2.666946
v 20.605591 4.686775 -2.354950
v 9.928589 5.135812 -5.875320
v 12.062012 7.858622 3.208237
v 20.135376 5.591854 0.248413
v 3.618042 2.902971 0.020065
v 3.391846 2.719196 -1.034317
v 0.264038 -0.194366 -0.252991
v 13.186768 4.876252 -0.852142
v -2.781128 4.323708 -4.235046
v -0.926270 3.205655 -5.507828
v -7.354736 9.412436 -5.940842
v 0.886230 4.557591 -10.533691
v -9.141968 9.861263 -11.795959
v -2.482456 7.007940 -16.186007
v -8.192383 8.757288 -17.695343
v 0.411011 5.700117 -13.077637
v -0.421021 1.786316 -2.458359
v -1.073853 2.290712 -1.857086
v -6.139038 8.036127 -18.267288
v -0.428589 0.042992 0.203445
v -5.062500 6.183585 -11.852707
vt 0.193364 0.488536
vt 0.220079 0.551479
vt 0.210995 0.488558
vt 0.201293 0.635462
vt 0.274879 0.621507
vt 0.202978 0.744138
vt 0.264698 0.742683
vt 0.280731 0.670211
vt 0.187409 0.810329
vt 0.222640 0.805047
vt 0.201973 0.426939
vt 0.182043 0.550642
vt 0.130747 0.729083
vt 0.119974 0.647914
vt 0.140060 0.603544
vt 0.584487 0.513337
vt 0.605106 0.513077
vt 0.613728 0.559310
vt 0.528880 0.614518
vt 0.573809 0.558597
vt 0.528631 0.762503
vt 0.678042 0.685209
vt 0.658723 0.768802
vt 0.579049 0.833738
vt 0.612150 0.828587
vt 0.671836 0.633565
vt 0.587042 0.455778
vt 0.602246 0.427249
vt 0.602579 0.456066
vt 0.603594 0.488150
vt 0.507582 0.661566
vt 0.585590 0.487821
vt 0.586814 0.427259
vt 0.948864 0.119366
vt 0.961052 0.116053
vt 0.951741 0.331462
vt 0.956662 0.234668
vt 0.937142 0.284044
vt 0.950089 0.434602
vt 0.932104 0.410958
vt 0.932215 0.459264
vt 0.955965 0.603429
vt 0.951900 0.547140
vt 0.934910 0.573082
vt 0.934292 0.355633
vt 0.963088 0.000480
vt 0.952872 0.000420
vt 0.940115 0.220972
vt 0.933582 0.516986
vt 0.972026 0.578766
vt 0.973062 0.520300
vt 0.973991 0.434401
vt 0.970922 0.347173
vt 0.964664 0.252825
vt 0.964875 0.200276
vt 0.969701 0.113905
vt 0.973722 0.000543
vt 0.836821 0.090432
vt 0.846893 0.000420
vt 0.843118 0.086531
vt 0.850226 0.234529
vt 0.834002 0.220804
vt 0.836171 0.161985
vt 0.843216 0.153944
vt 0.850476 0.318424
vt 0.834588 0.390851
vt 0.834732 0.288777
vt 0.836958 0.456723
vt 0.851139 0.439108
vt 0.817706 0.433848
vt 0.816745 0.348000
vt 0.818098 0.265728
vt 0.821353 0.164689
vt 0.828638 0.096039
vt 0.833101 0.000547
vt 0.913182 0.124035
vt 0.922504 0.000712
vt 0.929442 0.001041
vt 0.921435 0.123967
vt 0.912627 0.244623
vt 0.921088 0.240421
vt 0.929750 0.443111
vt 0.910297 0.479909
vt 0.913644 0.327375
vt 0.921653 0.346620
vt 0.913839 0.708013
vt 0.911059 0.649926
vt 0.930453 0.682499
vt 0.921271 0.292384
vt 0.931609 0.533120
vt 0.931525 0.622015
vt 0.891811 0.682196
vt 0.890682 0.618586
vt 0.890575 0.534660
vt 0.891418 0.451665
vt 0.894365 0.377605
vt 0.897441 0.312356
vt 0.904367 0.248633
vt 0.909486 0.164020
vt 0.911656 0.084215
vt 0.912575 0.000419
vt 0.981679 0.451251
vt 0.981044 0.382088
vt 1.000000 0.382439
vt 0.999500 0.451356
vt 0.983654 0.583632
vt 0.996200 0.516964
vt 0.992077 0.579525
vt 0.981748 0.776316
vt 0.991557 0.667069
vt 0.998359 0.773891
vt 0.999550 0.860917
vt 0.985089 0.901944
vt 0.984324 0.966631
vt 0.998468 0.945250
vt 0.981281 0.678763
vt 0.979461 0.517093
vt 0.983761 0.628899
vt 0.991938 0.622064
vt 0.965665 0.941169
vt 0.964405 0.859490
vt 0.964865 0.778487
vt 0.968346 0.693483
vt 0.970777 0.639752
vt 0.973197 0.588731
vt 0.790496 0.401331
vt 0.810128 0.401427
vt 0.820362 0.470534
vt 0.800317 0.625063
vt 0.881583 0.548768
vt 0.888121 0.603179
vt 0.872569 0.670132
vt 0.827748 0.754511
vt 0.792363 0.329937
vt 0.807980 0.330514
vt 0.778416 0.469868
vt 0.798492 0.235079
vt 0.721854 0.658053
vt 0.777433 0.758313
vt 0.706000 0.563139
vt 0.294355 0.159308
vt 0.326955 0.256110
vt 0.314355 0.159650
vt 0.304427 0.431904
vt 0.394197 0.347625
vt 0.373269 0.504664
vt 0.401420 0.407730
vt 0.324643 0.574743
vt 0.310772 0.001801
vt 0.294051 0.000420
vt 0.280104 0.257808
vt 0.286208 0.580593
vt 0.221405 0.490234
vt 0.203033 0.380213
vt 0.227821 0.325457
vt 0.872049 0.064108
vt 0.884034 0.000420
vt 0.880095 0.060184
vt 0.870227 0.248180
vt 0.879598 0.143816
vt 0.886096 0.245863
vt 0.887234 0.329000
vt 0.873420 0.368192
vt 0.872688 0.429988
vt 0.886201 0.409563
vt 0.869781 0.154987
vt 0.872151 0.107352
vt 0.879963 0.100822
vt 0.854863 0.405664
vt 0.853660 0.327636
vt 0.854099 0.250254
vt 0.857424 0.169049
vt 0.859747 0.117720
vt 0.862059 0.068980
vt 0.868043 0.000543
vt 0.000000 0.724453
vt 0.016036 0.726490
vt 0.021601 0.508870
vt 0.013516 0.508964
vt 0.015890 0.891900
vt 0.000516 0.906206
vt 0.018115 0.931571
vt 0.031539 0.910957
vt 0.030904 0.730951
vt 0.029607 0.508778
vt 0.682626 0.152429
vt 0.701760 0.152756
vt 0.713815 0.245043
vt 0.692262 0.413230
vt 0.778148 0.332597
vt 0.785058 0.390102
vt 0.769426 0.460761
vt 0.711522 0.550125
vt 0.746552 0.504617
vt 0.682334 0.000416
vt 0.698332 0.001738
vt 0.668991 0.246667
vt 0.674831 0.555485
vt 0.634840 0.496989
vt 0.609338 0.448096
vt 0.595255 0.363776
vt 0.618971 0.311389
vt 0.398274 0.564687
vt 0.417906 0.564783
vt 0.428140 0.633890
vt 0.408094 0.788418
vt 0.489361 0.712123
vt 0.495899 0.766534
vt 0.480346 0.833488
vt 0.435526 0.917867
vt 0.400141 0.493293
vt 0.415758 0.493870
vt 0.386193 0.633224
vt 0.406270 0.398436
vt 0.329632 0.821409
vt 0.385211 0.921669
vt 0.313778 0.726494
vt 0.169185 0.078013
vt 0.178615 0.067637
vt 0.184918 0.127774
vt 0.174104 0.211135
vt 0.223182 0.176670
vt 0.215511 0.239192
vt 0.184066 0.280929
vt 0.169037 0.000420
vt 0.177202 0.001095
vt 0.162289 0.127415
vt 0.165207 0.283747
vt 0.133254 0.237791
vt 0.124588 0.185892
vt 0.136694 0.159152
vt 0.367484 0.077802
vt 0.376889 0.067453
vt 0.383174 0.127429
vt 0.372390 0.210567
vt 0.416112 0.169520
vt 0.419629 0.198793
vt 0.409655 0.243898
vt 0.382325 0.280174
vt 0.367336 0.000416
vt 0.375480 0.001089
vt 0.360607 0.127071
vt 0.363517 0.282985
vt 0.331649 0.237152
vt 0.323006 0.185392
vt 0.335079 0.158723
vt 0.491571 0.162381
vt 0.512037 0.171105
vt 0.522892 0.248897
vt 0.501706 0.412216
vt 0.587595 0.331581
vt 0.594505 0.389087
vt 0.576535 0.470328
vt 0.484303 0.554541
vt 0.528888 0.546823
vt 0.478271 0.247417
vt 0.499777 0.000050
vt 0.422085 0.466895
vt 0.401451 0.343325
vt 0.095262 0.159718
vt 0.128175 0.257450
vt 0.115454 0.160063
vt 0.105430 0.434932
vt 0.196063 0.349843
vt 0.174453 0.507882
vt 0.203355 0.410526
vt 0.125841 0.579144
vt 0.103395 0.000000
vt 0.080873 0.259163
vt 0.087037 0.585050
vt 0.021611 0.493822
vt 0.000000 0.364412
vn -0.299491 0.944003 0.138432
vn -0.027017 0.974550 0.222535
vn -0.319338 0.938074 0.134318
vn -0.031793 0.998623 -0.041723
vn 0.210918 0.880847 0.423818
vn 0.095439 0.981440 -0.166337
vn 0.483297 0.848301 0.216355
vn 0.394486 0.862957 0.315731
vn 0.147340 0.959613 -0.239653
vn 0.435900 0.898798 0.046407
vn -0.341700 0.926581 0.157127
vn -0.268367 0.962994 -0.024953
vn -0.190604 0.912430 -0.362134
vn -0.248127 0.909728 -0.332908
vn -0.422754 0.886556 -0.187876
vn 0.452739 0.815899 0.359632
vn 0.468045 0.806621 0.360967
vn 0.272052 0.926594 0.259637
vn 0.125939 0.977899 0.166894
vn 0.305986 0.910180 0.279186
vn -0.239210 0.965192 -0.105747
vn -0.110560 0.993859 0.004529
vn -0.258899 0.956661 -0.133304
vn -0.397886 0.876387 -0.271353
vn -0.403132 0.893934 -0.195874
vn 0.117797 0.978465 0.169498
vn 0.650232 0.626619 0.429589
vn 0.691169 0.575341 0.437342
vn 0.652023 0.624729 0.429627
vn 0.575254 0.708777 0.408311
vn -0.089550 0.995764 0.020845
vn 0.576717 0.707673 0.408162
vn 0.691613 0.576943 0.434521
vn -0.341141 0.057960 0.938224
vn -0.055652 -0.106840 0.992718
vn 0.428966 -0.146785 0.891315
vn -0.271611 0.077018 0.959320
vn 0.507370 -0.010067 0.861669
vn 0.442455 0.136900 0.886280
vn -0.132195 0.268580 0.954143
vn -0.148157 0.127309 0.980735
vn 0.272649 0.268681 0.923836
vn 0.511151 -0.025651 0.859108
vn 0.505234 -0.351362 0.788215
vn -0.114238 -0.110532 0.987285
vn -0.152709 -0.105249 0.982651
vn 0.532099 -0.418299 0.736136
vn 0.484824 -0.294484 0.823544
vn 0.429725 0.146017 0.891076
vn -0.437677 0.154331 0.885788
vn -0.604496 0.044454 0.795366
vn -0.638177 0.063700 0.767250
vn -0.704065 0.095097 0.703739
vn -0.819861 0.142574 0.554528
vn -0.880455 0.300262 0.366936
vn -0.836060 0.316215 0.448343
vn -0.799601 0.324486 0.505319
vn 0.140310 0.873760 0.465679
vn 0.245146 0.833719 0.494789
vn 0.767240 0.371944 0.522495
vn 0.303375 0.610463 0.731641
vn -0.066186 0.765387 0.640158
vn 0.163773 0.765953 0.621687
vn 0.678046 0.415848 0.606073
vn 0.251906 0.542868 0.801148
vn -0.429789 0.621410 0.655081
vn -0.427406 0.711322 0.557983
vn -0.392023 0.565269 0.725802
vn 0.158481 0.481131 0.862204
vn -0.886758 0.419631 0.193832
vn -0.816062 0.532577 0.224509
vn -0.787345 0.583318 0.199569
vn -0.535978 0.805879 0.251570
vn -0.487915 0.855605 0.172854
vn 0.181416 0.862068 0.473209
vn -0.038526 0.202297 0.978566
vn -0.217842 0.120957 0.968460
vn 0.275580 0.328225 0.903506
vn 0.461486 0.330004 0.823485
vn -0.279203 0.086776 0.956303
vn 0.607594 0.279695 0.743371
vn 0.556483 0.001787 0.830857
vn -0.228583 -0.034068 0.972928
vn 0.102205 0.024118 0.994471
vn 0.575444 0.012639 0.817744
vn -0.180979 0.201488 0.962626
vn -0.282516 -0.042793 0.958308
vn 0.068230 0.027379 0.997294
vn 0.654173 0.197346 0.730145
vn 0.419364 -0.178908 0.890015
vn 0.410654 -0.187605 0.892282
vn -0.478687 0.195778 0.855879
vn -0.719208 0.046748 0.693220
vn -0.721429 0.044467 0.691059
vn -0.746798 -0.005866 0.665025
vn -0.756665 -0.011995 0.653692
vn -0.844720 -0.090503 0.527501
vn -0.882611 -0.130847 0.451527
vn -0.908094 -0.166928 0.384057
vn -0.642060 -0.108479 0.758941
vn -0.617104 -0.101167 0.780351
vn 0.287910 0.957572 -0.012834
vn 0.257654 0.965773 0.029936
vn 0.257654 0.965773 0.029936
vn 0.318602 0.946149 -0.057402
vn 0.468265 0.871185 -0.147529
vn 0.412858 0.896208 -0.162356
vn 0.412685 0.733814 -0.539637
vn 0.753207 0.594109 0.282336
vn 0.639123 0.697348 -0.324388
vn 0.704130 0.548014 -0.451532
vn 0.719324 0.499742 -0.482526
vn 0.820927 0.484512 0.302203
vn 0.853229 0.422885 0.305237
vn 0.802329 0.455268 -0.386003
vn 0.670595 0.730838 0.127198
vn 0.378569 0.917906 -0.118888
vn 0.561594 0.824185 -0.073013
vn 0.501471 0.721381 -0.477637
vn 0.534776 0.229387 0.813263
vn 0.482327 0.338109 0.808111
vn 0.460818 0.374961 0.804395
vn 0.610152 0.668072 0.425904
vn 0.546790 0.792589 0.269857
vn 0.453745 0.875430 0.166544
vn -0.236083 0.971048 0.036485
vn -0.294853 0.953689 0.059486
vn 0.011438 0.995126 -0.097944
vn -0.076618 0.997018 0.009178
vn 0.075115 0.943550 -0.322600
vn 0.015553 0.933834 -0.357368
vn -0.016803 0.914419 -0.404421
vn -0.089182 0.962886 -0.254751
vn -0.564839 0.822118 0.071265
vn -0.597136 0.794645 0.109403
vn -0.098577 0.974054 0.203718
vn -0.716222 0.696312 0.046644
vn -0.123996 0.957602 0.260043
vn -0.174968 0.982226 0.067953
vn -0.119952 0.949435 0.290146
vn 0.207083 0.928918 -0.306967
vn -0.123780 0.977002 -0.173627
vn 0.271761 0.906927 -0.321916
vn -0.034037 0.994676 -0.097266
vn -0.361291 0.893761 -0.265820
vn -0.401715 0.896933 -0.184761
vn -0.383779 0.887592 -0.254742
vn -0.273775 0.945628 -0.175597
vn 0.425840 0.812939 -0.397228
vn 0.395246 0.825452 -0.403001
vn 0.153400 0.985830 -0.067883
vn 0.063192 0.994876 -0.078923
vn 0.226221 0.973250 0.040106
vn 0.298473 0.954077 0.025515
vn 0.306060 0.951693 -0.024647
vn -0.307658 0.743560 0.593688
vn -0.669822 0.564258 0.482651
vn -0.378103 0.713309 0.590109
vn 0.142222 0.483706 0.863598
vn -0.571585 0.343657 0.745111
vn -0.465369 0.518696 0.717208
vn -0.595579 0.289560 0.749293
vn 0.174751 0.367698 0.913378
vn 0.185300 0.302350 0.935012
vn -0.498349 0.245091 0.831612
vn -0.027022 0.609635 0.792222
vn -0.232442 0.691656 0.683800
vn -0.612036 0.545035 0.573018
vn 0.735059 0.242867 0.633012
vn 0.716279 0.357371 0.599359
vn 0.708190 0.396576 0.584118
vn 0.280894 0.601630 0.747756
vn 0.111485 0.712102 0.693168
vn 0.002284 0.794777 0.606897
vn -0.330143 0.731609 0.596451
vn 0.281363 0.007160 0.959575
vn -0.400727 0.102516 0.910444
vn -0.419430 0.102865 0.901941
vn 0.325772 -0.018331 0.945271
vn -0.396559 0.099474 0.912604
vn 0.190979 0.077009 0.978569
vn -0.346635 0.300946 0.888412
vn -0.811262 0.136854 0.568441
vn -0.883212 0.129857 0.450637
vn -0.924638 0.165225 0.343141
vn -0.381403 0.592394 -0.709648
vn -0.435121 0.555662 -0.708456
vn -0.068824 0.776659 -0.626150
vn -0.140536 0.844467 -0.516842
vn 0.223968 0.703879 -0.674087
vn 0.249724 0.702085 -0.666870
vn 0.313514 0.783966 -0.535824
vn 0.229516 0.878222 -0.419582
vn 0.417569 0.816153 -0.399413
vn -0.527011 0.419195 -0.739281
vn -0.551404 0.405903 -0.728832
vn -0.359586 0.769343 -0.528024
vn -0.236440 0.915617 -0.325179
vn -0.516317 0.828344 -0.217402
vn -0.470923 0.814787 -0.338161
vn -0.533960 0.731589 -0.423869
vn -0.523704 0.718737 -0.457331
vn 0.319739 0.922037 -0.218210
vn 0.332036 0.901064 -0.278991
vn 0.286726 0.956101 0.060492
vn 0.254227 0.964304 -0.074074
vn 0.414784 0.876061 0.245909
vn 0.474538 0.852585 0.218889
vn 0.526008 0.821235 0.221108
vn 0.461154 0.884278 0.073421
vn 0.450925 0.738130 -0.501827
vn 0.433776 0.713452 -0.550295
vn 0.109355 0.972100 -0.207517
vn 0.530786 0.590628 -0.607803
vn 0.076345 0.962210 -0.261388
vn 0.262003 0.946584 -0.187971
vn 0.048602 0.959920 -0.276028
vn -0.310447 0.283199 0.907425
vn -0.304825 0.192531 0.932745
vn -0.579929 0.594924 0.556550
vn -0.434386 0.745759 0.505126
vn -0.744585 0.585989 0.319703
vn -0.662124 0.683344 0.307624
vn -0.580012 0.705711 0.406889
vn -0.261334 0.089677 0.961074
vn -0.230928 0.080116 0.969667
vn -0.146107 0.614770 0.775055
vn -0.268207 0.775626 0.571375
vn -0.027601 0.804707 0.593030
vn 0.044765 0.761145 0.647035
vn 0.092998 0.614749 0.783221
vn 0.811085 0.578239 -0.088214
vn 0.859900 0.499436 -0.105526
vn 0.520564 0.804735 0.285334
vn 0.364602 0.919042 0.149758
vn 0.421109 0.699757 0.577068
vn 0.321060 0.783478 0.532055
vn 0.298318 0.815949 0.495211
vn 0.354039 0.861079 0.364965
vn 0.900175 0.405579 -0.158713
vn 0.898549 0.395562 -0.190104
vn 0.524844 0.832690 -0.176539
vn 0.346574 0.937762 0.022102
vn 0.260008 0.943545 -0.205229
vn 0.291663 0.910123 -0.294295
vn 0.436708 0.807049 -0.397440
vn -0.583439 0.811910 -0.020035
vn -0.584887 0.810959 -0.015871
vn -0.195541 0.909169 -0.367662
vn -0.048112 0.972478 -0.227972
vn -0.152626 0.755177 -0.637505
vn -0.032243 0.801253 -0.597456
vn 0.017391 0.819737 -0.572476
vn 0.000682 0.992557 -0.121779
vn -0.024458 0.901623 -0.431831
vn -0.166660 0.985750 0.022835
vn -0.679112 0.733819 0.017788
vn 0.020024 0.996257 0.084088
vn -0.078972 0.991597 0.102462
vn 0.687476 0.677674 0.261025
vn 0.731003 0.628039 0.266837
vn 0.407042 0.892408 0.194742
vn 0.523339 0.849181 0.070765
vn 0.179427 0.925965 0.332258
vn 0.155374 0.932423 0.326261
vn 0.132553 0.956240 0.260835
vn 0.265080 0.937316 0.226211
vn 0.671058 0.741359 0.008244
vn 0.755144 0.547422 0.360676
vn 0.558857 0.826729 0.064799
vn 0.666272 0.740430 -0.088576
vn 0.725250 0.682380 -0.091487
s 1
g SM_Plant_Grass_Plantain_05 SM_Plant_Grass_Plantain Duoduod_RiverWeed
usemtl SM_Plant_Grass_Plantain_05SG
f 12/1/1 2/2/2 11/3/3
f 15/4/4 4/5/5 2/2/2
f 14/6/6 6/7/7 9/8/8
f 7/9/9 10/10/10 14/6/6
f 15/4/4 9/8/8 4/5/5
f 14/6/6 10/10/10 6/7/7
f 12/1/1 11/3/3 13/11/11
f 14/6/6 9/8/8 15/4/4
f 12/1/1 1/12/12 2/2/2
f 5/13/13 7/9/9 14/6/6
f 8/14/14 5/13/13 14/6/6 15/4/4
f 3/15/15 8/14/14 15/4/4
f 1/12/12 3/15/15 15/4/4
f 15/4/4 2/2/2 1/12/12
s 4
f 26/16/16 25/17/17 17/18/18
f 17/18/18 18/19/19 16/20/20
f 20/21/21 24/22/22 21/23/23
f 22/24/24 21/23/23 30/25/25
f 18/19/19 19/26/26 24/22/22
f 29/27/27 31/28/28 27/29/29
f 26/16/16 32/30/30 25/17/17
f 32/30/30 29/27/27 27/29/29
f 20/21/21 21/23/23 22/24/24
f 23/31/31 24/22/22 20/21/21
f 18/19/19 24/22/22 23/31/31
f 18/19/19 17/18/18 19/26/26
f 26/16/16 17/18/18 16/20/20
f 26/16/16 33/32/32 32/30/30
f 33/32/32 29/27/27 32/30/30
f 28/33/33 31/28/28 29/27/27
s 8
f 54/36/34 55/37/35 38/38/36
f 53/39/37 39/40/38 49/41/39
f 42/42/40 52/43/41 41/44/42
f 54/36/34 38/38/36 48/45/43
f 37/34/44 56/35/45 57/46/46 45/47/47
f 47/48/48 55/37/35 56/35/45 37/34/44
f 38/38/36 55/37/35 47/48/48
f 39/40/38 53/39/37 54/36/34 48/45/43
f 52/43/41 53/39/37 49/41/39 51/49/49
f 52/43/41 51/49/49 41/44/42
f 42/42/40 40/50/50 52/43/41
f 40/50/50 50/51/51 52/43/41
f 50/51/51 34/52/52 53/39/37 52/43/41
f 54/36/34 53/39/37 34/52/52 43/53/53
f 43/53/53 35/54/54 55/37/35 54/36/34
f 55/37/35 35/54/54 46/55/55
f 56/35/45 55/37/35 46/55/55 36/56/56
f 57/46/46 56/35/45 36/56/56 44/57/57
s 12
f 75/58/58 60/59/59 68/60/60
f 67/61/61 73/62/62 74/63/63 59/64/64
f 58/65/65 71/66/66 72/67/67
f 66/68/68 71/66/66 64/69/69
f 74/63/63 75/58/58 68/60/60 59/64/64
f 72/67/67 73/62/62 67/61/61 58/65/65
f 64/69/69 71/66/66 58/65/65
f 66/68/68 65/70/70 71/66/66
f 71/66/66 65/70/70 70/71/71
f 72/67/67 71/66/66 70/71/71 63/72/72
f 63/72/72 73/62/62 72/67/67
f 73/62/62 63/72/72 62/73/73
f 74/63/63 73/62/62 62/73/73
f 62/73/73 69/74/74 75/58/58 74/63/63
f 69/74/74 61/75/75 75/58/58
f 75/58/58 61/75/75 60/59/59
s 16
f 100/76/76 101/77/77 79/78/78 78/79/79
f 99/80/80 100/76/76 78/79/79 89/81/81
f 87/82/82 97/83/83 98/84/84 77/85/85
f 86/86/86 96/87/87 84/88/88
f 98/84/84 99/80/80 89/81/81 91/89/89
f 98/84/84 91/89/89 77/85/85
f 97/83/83 87/82/82 76/90/90
f 94/91/91 96/87/87 97/83/83 76/90/90
f 84/88/88 96/87/87 94/91/91
f 86/86/86 85/92/92 96/87/87
f 96/87/87 85/92/92 95/93/93
f 97/83/83 96/87/87 95/93/93 83/94/94
f 83/94/94 93/95/95 97/83/83
f 97/83/83 93/95/95 82/96/96
f 98/84/84 97/83/83 82/96/96
f 82/96/96 92/97/97 98/84/84
f 92/97/97 90/98/98 99/80/80 98/84/84
f 90/98/98 81/99/99 100/76/76 99/80/80
f 81/99/99 88/100/100 100/76/76
f 88/100/100 80/101/101 101/77/77 100/76/76
s 19
f 114/102/102 106/103/103 105/104/104 113/105/105
f 125/106/106 104/107/107 115/108/108
f 122/109/109 103/110/110 102/111/111
f 119/112/112 121/113/113 122/109/109 102/111/111
f 112/114/114 121/113/113 110/115/115
f 103/110/110 122/109/109 123/116/116
f 107/117/117 114/102/102 113/105/105 104/107/107
f 124/118/118 125/106/106 115/108/108 117/119/119
f 123/116/116 124/118/118 117/119/119 103/110/110
f 110/115/115 121/113/113 119/112/112
f 112/114/114 111/120/120 121/113/113
f 121/113/113 111/120/120 120/121/121
f 122/109/109 121/113/113 120/121/121 109/122/122
f 108/123/123 122/109/109 109/122/122
f 123/116/116 122/109/109 108/123/123
f 108/123/123 118/124/124 124/118/118 123/116/116
f 118/124/124 116/125/125 125/106/106 124/118/118
f 116/125/125 107/117/117 125/106/106
f 125/106/106 107/117/117 104/107/107
s 23
f 135/126/126 134/127/127 127/128/128
f 140/129/129 127/128/128 129/130/130
f 140/129/129 133/131/131 131/132/132
f 136/133/133 140/129/129 131/132/132
f 140/129/129 129/130/130 133/131/131
f 134/127/127 139/134/134 137/135/135
f 135/126/126 127/128/128 126/136/136
f 135/126/126 139/134/134 134/127/127
f 139/134/134 138/137/137 137/135/135
f 130/138/138 140/129/129 132/139/139
f 128/140/140 140/129/129 130/138/138
f 126/136/136 140/129/129 128/140/140
f 140/129/129 126/136/136 127/128/128
f 132/139/139 140/129/129 136/133/133
s 26
f 151/141/141 142/142/142 150/143/143
f 155/144/144 144/145/145 142/142/142
f 155/144/144 146/146/146 149/147/147
f 152/148/148 146/146/146 155/144/144
f 155/144/144 149/147/147 144/145/145
f 150/143/143 153/149/149 154/150/150
f 151/141/141 141/151/151 142/142/142
f 151/141/141 150/143/143 154/150/150
f 147/152/152 152/148/148 155/144/144
f 145/153/153 147/152/152 155/144/144
f 148/154/154 145/153/153 155/144/144
f 143/155/155 148/154/154 155/144/144
f 141/151/151 143/155/155 155/144/144
f 155/144/144 142/142/142 141/151/151
s 29
f 175/156/156 165/158/157 158/157/158
f 172/159/159 156/161/160 157/160/161
f 169/162/162 156/161/160 172/159/159 171/163/163
f 164/164/164 162/165/165 171/163/163
f 157/160/161 173/166/166 172/159/159
f 174/167/167 167/168/168 165/158/157 175/156/156
f 173/166/166 157/160/161 167/168/168 174/167/167
f 162/165/165 169/162/162 171/163/163
f 164/164/164 171/163/163 163/169/169
f 171/163/163 170/170/170 163/169/169
f 172/159/159 161/171/171 170/170/170 171/163/163
f 160/172/172 161/171/171 172/159/159
f 173/166/166 160/172/172 172/159/159
f 160/172/172 173/166/166 174/167/167 168/173/173
f 168/173/173 174/167/167 175/156/156 166/174/174
f 166/174/174 175/156/156 159/175/175
f 175/156/156 158/157/158 159/175/175
s 31
f 179/176/176 184/177/177 185/178/178 178/179/179
f 183/180/180 184/177/177 179/176/176 181/181/181
f 182/182/182 183/180/180 181/181/181
f 182/182/182 180/183/183 183/180/180
f 180/183/183 176/184/184 184/177/177 183/180/180
f 185/178/178 184/177/177 176/184/184 177/185/185
s 32
f 198/186/186 197/187/187 187/188/188
f 202/189/189 187/188/188 189/190/190
f 202/189/189 194/191/191 191/192/192
f 199/193/193 202/189/189 196/194/194
f 202/189/189 189/190/190 194/191/191
f 202/189/189 191/192/192 196/194/194
f 197/187/187 201/195/195 200/196/196
f 198/186/186 187/188/188 186/197/197
f 198/186/186 201/195/195 197/187/187
f 192/198/198 202/189/189 199/193/193
f 195/199/199 202/189/189 192/198/198
f 190/200/200 202/189/189 195/199/199
f 193/201/201 202/189/189 190/200/200
f 188/202/202 202/189/189 193/201/201
f 186/197/197 202/189/189 188/202/202
f 202/189/189 186/197/197 187/188/188
s 35
f 212/203/203 211/204/204 204/205/205
f 217/206/206 204/205/205 206/207/207
f 217/206/206 210/208/208 208/209/209
f 213/210/210 217/206/206 208/209/209
f 217/206/206 206/207/207 210/208/208
f 211/204/204 216/211/211 214/212/212
f 212/203/203 204/205/205 203/213/213
f 212/203/203 216/211/211 211/204/204
f 216/211/211 215/214/214 214/212/212
f 207/215/215 217/206/206 209/216/216
f 205/217/217 217/206/206 207/215/215
f 203/213/213 217/206/206 205/217/217
f 217/206/206 203/213/213 204/205/205
f 209/216/216 217/206/206 213/210/210
s 38
f 227/218/218 226/219/219 219/220/220
f 231/221/221 219/220/220 221/222/222
f 231/221/221 221/222/222 223/223/223
f 228/224/224 231/221/221 223/223/223
f 226/219/219 230/225/225 229/226/226
f 227/218/218 219/220/220 218/227/227
f 227/218/218 230/225/225 226/219/219
f 224/228/228 231/221/221 228/224/224
f 222/229/229 231/221/221 224/228/228
f 225/230/230 231/221/221 222/229/229
f 220/231/231 231/221/221 225/230/230
f 218/227/227 231/221/221 220/231/231
f 231/221/221 218/227/227 219/220/220
s 40
f 242/232/232 241/233/233 233/234/234
f 246/235/235 233/234/234 235/236/236
f 246/235/235 240/237/237 237/238/238
f 243/239/239 246/235/235 237/238/238
f 246/235/235 235/236/236 240/237/237
f 241/233/233 245/240/240 244/241/241
f 242/232/232 233/234/234 232/242/242
f 242/232/232 245/240/240 241/233/233
f 238/243/243 246/235/235 243/239/239
f 236/244/244 246/235/235 238/243/243
f 239/245/245 246/235/235 236/244/244
f 234/246/246 246/235/235 239/245/245
f 232/242/242 246/235/235 234/246/246
f 246/235/235 232/242/242 233/234/234
s 42
f 257/247/247 256/248/248 248/249/249
f 259/250/250 248/249/249 249/251/251
f 259/250/250 254/252/252 251/253/253
f 252/254/254 259/250/250 255/255/255
f 259/250/250 249/251/251 254/252/252
f 259/250/250 251/253/253 255/255/255
f 257/247/247 248/249/249 247/256/256
f 257/247/247 258/257/257 256/248/248
f 250/258/258 259/250/250 252/254/254
f 253/259/259 259/250/250 250/258/258
f 247/256/256 259/250/250 253/259/259
f 259/250/250 247/256/256 248/249/249
s 45
f 269/260/260 268/262/261 261/261/262
f 272/263/263 261/261/262 263/264/264
f 272/263/263 267/266/265 265/265/266
f 270/267/267 272/263/263 265/265/266
f 272/263/263 263/264/264 267/266/265
f 269/260/260 261/261/262 260/269/268
f 269/260/260 271/268/269 268/262/261
f 266/270/270 272/263/263 270/267/267
f 264/271/271 272/263/263 266/270/270
f 262/272/272 272/263/263 264/271/271
f 260/269/268 272/263/263 262/272/272
f 272/263/263 260/269/268 261/261/262
