{"asset":{"version":"2.0","generator":"Unity 6000.0.51f1 glTFast 6.13.0"},"nodes":[{"name":"DDTree1","mesh":0,"translation":[-150.825745,190.16954,225.13092],"rotation":[2.18556941E-08,0,0,1]}],"extensionsRequired":["KHR_texture_transform"],"extensionsUsed":["KHR_texture_transform"],"buffers":[{"uri":"DDTree1.bin","byteLength":442204}],"bufferViews":[{"buffer":0,"byteLength":19674,"target":34963},{"buffer":0,"byteLength":422528,"byteOffset":19676,"byteStride":64,"target":34962}],"accessors":[{"bufferView":1,"componentType":5126,"count":6602,"type":"VEC3","max":[5.83729553,15.7681046,5.34249973],"min":[-5.66099167,-0.3500371,-5.43462753]},{"bufferView":1,"componentType":5126,"count":6602,"type":"VEC3","byteOffset":12},{"bufferView":1,"componentType":5126,"count":6602,"type":"VEC4","byteOffset":24},{"bufferView":1,"componentType":5126,"count":6602,"type":"VEC2","byteOffset":40},{"bufferView":1,"componentType":5126,"count":6602,"type":"VEC2","byteOffset":48},{"bufferView":1,"componentType":5126,"count":6602,"type":"VEC2","byteOffset":56},{"bufferView":0,"componentType":5123,"count":3675,"type":"SCALAR"},{"bufferView":0,"componentType":5123,"count":6162,"type":"SCALAR","byteOffset":7350}],"images":[{"name":"T_Base_Bark_01_normal.png","uri":"T_Base_Bark_01_normal.png","mimeType":"image/png"},{"name":"T_Base_Bark_01_basecolor.jpg","uri":"T_Base_Bark_01_basecolor.jpg","mimeType":"image/jpeg"},{"name":"T_BirchTree_Leaf_01_A.png","uri":"T_BirchTree_Leaf_01_A.png","mimeType":"image/png"}],"materials":[{"name":"Bark","pbrMetallicRoughness":{"metallicFactor":0.396,"baseColorTexture":{"index":1,"extensions":{"KHR_texture_transform":{"offset":[0,0],"scale":[2.01,1]}}}},"normalTexture":{"index":0}},{"name":"New Material 2","pbrMetallicRoughness":{"baseColorFactor":[0.552677631,1,0.14717856,1],"metallicFactor":0,"roughnessFactor":0.825,"baseColorTexture":{"index":2}},"alphaMode":"MASK","doubleSided":true}],"meshes":[{"name":"SM_OakTree_02_LOD2","primitives":[{"attributes":{"POSITION":0,"NORMAL":1,"TANGENT":2,"TEXCOORD_0":3,"TEXCOORD_1":4,"TEXCOORD_2":5},"indices":6,"material":0},{"attributes":{"POSITION":0,"NORMAL":1,"TANGENT":2,"TEXCOORD_0":3,"TEXCOORD_1":4,"TEXCOORD_2":5},"indices":7,"material":1}]}],"scene":0,"scenes":[{"name":"DDTree1","nodes":[0]}],"textures":[{"source":0},{"source":1},{"source":2}]}